<?xml version="1.0" ?><svg id="Layer_1" style="enable-background:new 0 0 32 32;" version="1.1" viewBox="0 0 32 32" xml:space="preserve" xmlns="http://www.w3.org/2000/svg" xmlns:xlink="http://www.w3.org/1999/xlink"><style type="text/css">
	.st0{clip-path:url(#SVGID_2_);}
	.st1{clip-path:url(#SVGID_4_);}
</style><g><g><path d="M30,31H2c-0.5522461,0-1-0.4472656-1-1V6.3076172c0-0.5527344,0.4477539-1,1-1h28c0.5522461,0,1,0.4472656,1,1V30    C31,30.5527344,30.5522461,31,30,31z M3,29h26V7.3076172H3V29z"/></g><g><rect height="4.3076925" width="19.3846149" x="6.3076925" y="2"/></g><g><path d="M25.6923828,7.3076172H6.3076172c-0.5522461,0-1-0.4472656-1-1V2c0-0.5527344,0.4477539-1,1-1h19.3847656    c0.5522461,0,1,0.4472656,1,1v4.3076172C26.6923828,6.8603516,26.2446289,7.3076172,25.6923828,7.3076172z M7.3076172,5.3076172    h17.3847656V3H7.3076172V5.3076172z"/></g><g><g><path d="M18.1538086,22.9228516c-0.5522461,0-1-0.4472656-1-1v-9.6923828c0-0.5527344,0.4477539-1,1-1s1,0.4472656,1,1v9.6923828     C19.1538086,22.4755859,18.7060547,22.9228516,18.1538086,22.9228516z"/></g><g><path d="M16,25.0771484c-1.7392578,0-3.1538086-1.4150391-3.1538086-3.1542969     c0-1.7382813,1.4145508-3.1533203,3.1538086-3.1533203s3.1538086,1.4150391,3.1538086,3.1533203     C19.1538086,23.6621094,17.7392578,25.0771484,16,25.0771484z M16,20.7695313     c-0.6362305,0-1.1538086,0.5175781-1.1538086,1.1533203c0,0.6367188,0.5175781,1.1542969,1.1538086,1.1542969     s1.1538086-0.5175781,1.1538086-1.1542969C17.1538086,21.2871094,16.6362305,20.7695313,16,20.7695313z"/></g></g></g></svg>